<svg width="81" height="82" viewBox="0 0 81 82" fill="none" xmlns="http://www.w3.org/2000/svg">
<path d="M70.2112 34.5781C69.7112 34.3781 69.2112 34.2781 68.7112 34.1782C68.7112 34.0782 68.7112 33.9781 68.6112 33.8781C68.6112 33.7781 68.6112 33.6781 68.5112 33.5781C68.9112 33.2781 69.3112 32.9781 69.7112 32.5781C75.5112 27.0781 75.7112 17.9781 70.3112 12.2781C64.8112 6.47814 55.7112 6.27815 50.0112 11.6782C49.6112 12.0781 49.3112 12.3781 48.9112 12.7781C48.8112 12.7781 48.7112 12.6782 48.6112 12.6782C48.5112 12.6782 48.4112 12.5781 48.3112 12.5781C48.2112 12.0781 48.1112 11.5781 48.0112 11.0781C46.2112 3.37814 38.4112 -1.42185 30.7112 0.378147C23.0112 2.17815 18.2112 9.97815 20.0112 17.6782C20.1112 18.1782 20.3112 18.6782 20.4112 19.1782C20.3112 19.2782 20.3112 19.2781 20.2112 19.3781C20.1112 19.4781 20.1112 19.4781 20.0112 19.5781C19.5112 19.3781 19.0112 19.1781 18.5112 19.0781C10.9112 16.7781 2.91117 21.1781 0.611172 28.7781C-1.68883 36.3781 2.71118 44.3782 10.3112 46.6782C10.8112 46.8782 11.3112 46.9781 11.8112 47.0781C11.8112 47.1781 11.8112 47.2781 11.9112 47.3781C11.9112 47.4781 11.9112 47.5782 12.0112 47.6782C11.6112 47.9781 11.2112 48.2781 10.8112 48.6782C5.01118 54.1782 4.81118 63.2781 10.2112 68.9781C15.7112 74.7782 24.8112 74.9781 30.5112 69.5781C30.9112 69.1781 31.2112 68.8782 31.6112 68.4781C31.7112 68.4781 31.8112 68.5781 31.9112 68.5781C32.0112 68.5781 32.1112 68.6781 32.2112 68.6781C32.3112 69.1781 32.4112 69.6781 32.5112 70.1781C34.3112 77.8781 42.1112 82.6781 49.8112 80.8781C57.5112 79.0781 62.3112 71.2781 60.5112 63.5781C60.4112 63.0781 60.2112 62.5781 60.1112 62.0781C60.2112 61.9781 60.2112 61.9781 60.3112 61.8781C60.4112 61.7781 60.5112 61.7781 60.5112 61.6782C61.0112 61.8782 61.5112 62.0782 62.0112 62.1782C69.6112 64.4781 77.6112 60.0782 79.9112 52.4782C82.2112 44.8782 77.8112 36.8781 70.2112 34.5781Z" fill="#DC6E83"/>
<path d="M48.6112 49.4781C43.7112 54.0781 36.1112 53.8781 31.5112 48.9781C26.9112 44.0781 27.1112 36.4781 32.0112 31.8781C36.9112 27.2781 44.5112 27.4781 49.1112 32.3781C53.6112 37.1781 53.4112 44.8781 48.6112 49.4781Z" fill="white"/>
</svg>
